<?xml version="1.0" encoding="utf-8"?>
<!-- Generator: Adobe Illustrator 26.0.0, SVG Export Plug-In . SVG Version: 6.00 Build 0)  -->
<svg version="1.1" id="Capa_1" xmlns="http://www.w3.org/2000/svg" xmlns:xlink="http://www.w3.org/1999/xlink" x="0px" y="0px"
	 viewBox="0 0 1427.38 1481.09" style="enable-background:new 0 0 1427.38 1481.09;" xml:space="preserve">
<style type="text/css">
	.st0{opacity:0.4;fill:url(#SVGID_1_);}
	.st1{fill:url(#SVGID_00000162348574803352076310000003504738580780770196_);}
	.st2{fill:url(#SVGID_00000049192198224035803630000000977222188671264417_);}
	.st3{fill:url(#SVGID_00000054246809926156770990000002564914347389096595_);}
	.st4{opacity:0.4;fill:url(#SVGID_00000042006479475396033990000004379500360567015855_);}
	.st5{fill:url(#SVGID_00000116196400727156097340000018303486261707454603_);}
	.st6{fill:url(#SVGID_00000177478708769172499110000014814230512470401682_);}
	.st7{fill:url(#SVGID_00000047771229150575192410000008757420737410876578_);}
</style>
<g>
	
		<linearGradient id="SVGID_1_" gradientUnits="userSpaceOnUse" x1="859.9844" y1="1788.1797" x2="859.9844" y2="1449.2661" gradientTransform="matrix(0.9988 0.0493 -0.0493 0.9988 173.8021 -326.7823)">
		<stop  offset="0" style="stop-color:#EDEEEF"/>
		<stop  offset="1" style="stop-color:#F9F9F9"/>
	</linearGradient>
	<path class="st0" d="M1218.45,1176.05c-2.97-0.19-29.57-1.65-32.59-1.81c-3.02-0.16-6.06-0.32-9.11-0.45c-0.02,0-0.03,0-0.05,0
		c-1.95-0.09-3.9-0.17-5.86-0.25c-0.3-0.01-0.61-0.02-0.91-0.03c-1.72-0.07-3.45-0.13-5.18-0.19c-0.16-0.01-0.32-0.01-0.48-0.01
		c-1.9-0.06-3.8-0.12-5.7-0.17c-0.01,0-0.03,0-0.04,0c-2.02-0.05-4.04-0.1-6.07-0.15c0,0-0.01,0-0.01,0h0
		c-234.84-5.04-564.05,63.6-635.65,135.68l-41.59,164.96c-0.54,6.03,64.33,9.61,98.84,6.03c0.1-0.01,0.19-0.02,0.28-0.03
		c2.2-0.23,4.27-0.5,6.19-0.79l709.71-130.43c0.02-0.01,0.04-0.01,0.07-0.02C1509.99,1282.36,1450.68,1190.81,1218.45,1176.05z
		 M1093.6,1226.4c74.17,9.24,99.38,34.99,51.81,61.81c-50.97,27.12-169.43,45.71-276.3,44.97c1.71,0.01,3.43,0.02,5.15,0.02
		c-84.09-9.61-102.6-35.04-41.16-61.28C891.92,1245.54,1001.64,1226.82,1093.6,1226.4z M1066.27,1223.89
		c0.66,0.04,1.3,0.09,1.95,0.13C1067.56,1223.98,1066.92,1223.93,1066.27,1223.89z M1070.52,1224.17c0.86,0.06,1.71,0.13,2.57,0.19
		C1072.23,1224.3,1071.38,1224.23,1070.52,1224.17z M1074.64,1224.48c0.99,0.08,1.97,0.16,2.95,0.24
		C1076.61,1224.64,1075.63,1224.56,1074.64,1224.48z M1078.64,1224.81c1.09,0.09,2.16,0.19,3.23,0.3
		C1080.8,1225.01,1079.72,1224.91,1078.64,1224.81z M1082.52,1225.17c1.15,0.11,2.29,0.23,3.42,0.35
		C1084.81,1225.4,1083.67,1225.28,1082.52,1225.17z M1086.3,1225.56c1.2,0.13,2.38,0.26,3.55,0.39
		C1088.68,1225.81,1087.49,1225.68,1086.3,1225.56z M1089.99,1225.96c1.22,0.14,2.42,0.29,3.61,0.43
		C1092.41,1226.25,1091.2,1226.1,1089.99,1225.96z M846.73,1332.72c-1.07-0.04-2.14-0.07-3.2-0.11
		C844.59,1332.65,845.66,1332.68,846.73,1332.72z M840.74,1332.5c-0.79-0.03-1.57-0.06-2.36-0.1
		C839.16,1332.43,839.95,1332.46,840.74,1332.5z M868.92,1333.17c-1.65-0.01-3.29-0.03-4.93-0.05
		C865.63,1333.14,867.27,1333.15,868.92,1333.17z M863.51,1333.11c-1.55-0.02-3.09-0.04-4.63-0.07
		C860.42,1333.07,861.97,1333.09,863.51,1333.11z M858.03,1333.02c-1.42-0.03-2.84-0.06-4.25-0.09
		C855.19,1332.96,856.61,1332.99,858.03,1333.02z M852.45,1332.89c-1.26-0.03-2.53-0.07-3.78-0.11
		C849.92,1332.82,851.18,1332.86,852.45,1332.89z"/>
	
		<linearGradient id="SVGID_00000155842936913365946020000011435352750378051000_" gradientUnits="userSpaceOnUse" x1="104.3186" y1="885.6483" x2="1042.3307" y2="506.6668">
		<stop  offset="0" style="stop-color:#00709B"/>
		<stop  offset="0.127" style="stop-color:#0083AB"/>
		<stop  offset="0.2728" style="stop-color:#0093B9"/>
		<stop  offset="0.44" style="stop-color:#009FC2"/>
		<stop  offset="0.6453" style="stop-color:#00A8C9"/>
		<stop  offset="1" style="stop-color:#00ACCD"/>
	</linearGradient>
	<path style="fill:url(#SVGID_00000155842936913365946020000011435352750378051000_);" d="M504.87,0.18
		c-4.49-0.12-9-0.18-13.52-0.18c-4.52,0-9.03,0.06-13.52,0.18C127.73,9.57-99.35,395.54,43.19,734.2l412.81,725.74
		c16.04,28.19,89.92,28.19,105.95,0L974.77,734.2C1117.32,395.54,854.96,9.57,504.87,0.18z M442.7,765.59
		c-136.32,0-246.83-117-246.83-261.33c0-144.33,110.51-261.33,246.83-261.33s246.83,117,246.83,261.33
		C689.54,648.59,579.03,765.59,442.7,765.59z"/>
	
		<linearGradient id="SVGID_00000016771121651970079700000015938194159896006569_" gradientUnits="userSpaceOnUse" x1="730.3351" y1="1481.0898" x2="730.3351" y2="0">
		<stop  offset="0" style="stop-color:#00ACCD"/>
		<stop  offset="0.2166" style="stop-color:#00A2C4"/>
		<stop  offset="0.5525" style="stop-color:#008FB5"/>
		<stop  offset="0.9639" style="stop-color:#00739D"/>
		<stop  offset="1" style="stop-color:#00709B"/>
	</linearGradient>
	<path style="fill:url(#SVGID_00000016771121651970079700000015938194159896006569_);" d="M540.14,0.18
		C535.65,0.06,495.87,0,491.35,0c-4.52,0-9.03,0.06-13.52,0.18c-11.85,0.32-23.56,1.08-35.12,2.25
		C772.62,35.67,979.93,407,842.21,734.2l-386.69,679.82c-7.88,13.86-7.88,31.2,0,45.06l0.49,0.86c16.04,28.19,89.92,28.19,105.95,0
		L974.77,734.2C1117.32,395.54,890.23,9.57,540.14,0.18z"/>
	
		<linearGradient id="SVGID_00000013884009444072871310000006604117870642279354_" gradientUnits="userSpaceOnUse" x1="342.5051" y1="765.594" x2="342.5051" y2="242.936">
		<stop  offset="0" style="stop-color:#00ACCD"/>
		<stop  offset="0.2208" style="stop-color:#00A5C6"/>
		<stop  offset="0.483" style="stop-color:#0098BC"/>
		<stop  offset="0.765" style="stop-color:#0084AC"/>
		<stop  offset="1" style="stop-color:#00709B"/>
	</linearGradient>
	<path style="fill:url(#SVGID_00000013884009444072871310000006604117870642279354_);" d="M442.7,765.59
		c15.88,0,31.39-1.61,46.44-4.64c-114.12-23-200.4-129.17-200.4-256.69c0-127.52,86.28-233.69,200.4-256.69
		c-15.04-3.03-30.56-4.64-46.44-4.64c-136.32,0-246.83,117-246.83,261.33C195.87,648.59,306.38,765.59,442.7,765.59z"/>
</g>
</svg>
