<?xml version="1.0" encoding="utf-8"?>
<!-- Generator: Adobe Illustrator 26.0.0, SVG Export Plug-In . SVG Version: 6.00 Build 0)  -->
<svg version="1.1" id="Capa_1" xmlns="http://www.w3.org/2000/svg" xmlns:xlink="http://www.w3.org/1999/xlink" x="0px" y="0px"
	 viewBox="0 0 1426.06 1481.09" style="enable-background:new 0 0 1426.06 1481.09;" xml:space="preserve">
<style type="text/css">
	.st0{opacity:0.4;fill:url(#SVGID_1_);}
	.st1{fill:url(#SVGID_00000116232899933837204690000018021311050972361631_);}
	.st2{fill:url(#SVGID_00000062894761220630034000000006177455287854045609_);}
	.st3{fill:url(#SVGID_00000111904616717466562020000010709026930950812088_);}
	.st4{opacity:0.4;fill:url(#SVGID_00000181796307132824325020000002830096601369658040_);}
	.st5{fill:url(#SVGID_00000145040160935414464040000002799931575839843234_);}
	.st6{fill:url(#SVGID_00000135673763715748457080000010934599680958166686_);}
	.st7{fill:url(#SVGID_00000060030382811545539870000012615776474625140099_);}
</style>
<g>
	
		<linearGradient id="SVGID_1_" gradientUnits="userSpaceOnUse" x1="851.6825" y1="1681.5753" x2="851.6825" y2="1342.6616" gradientTransform="matrix(0.9988 0.0493 -0.0493 0.9988 175.5257 -219.8964)">
		<stop  offset="0" style="stop-color:#EDEEEF"/>
		<stop  offset="1" style="stop-color:#F9F9F9"/>
	</linearGradient>
	<path class="st0" d="M1217.14,1176.05c-2.97-0.19-29.57-1.65-32.59-1.81c-3.02-0.16-6.06-0.32-9.11-0.45c-0.02,0-0.03,0-0.05,0
		c-1.95-0.09-3.9-0.17-5.86-0.25c-0.3-0.01-0.61-0.02-0.91-0.03c-1.72-0.07-3.45-0.13-5.18-0.19c-0.16-0.01-0.32-0.01-0.48-0.02
		c-1.9-0.06-3.8-0.12-5.7-0.17c-0.01,0-0.03,0-0.04,0c-2.02-0.05-4.04-0.1-6.07-0.15c0,0-0.01,0-0.01,0h0
		c-234.84-5.04-564.05,63.6-635.65,135.68l-41.59,164.96c-0.54,6.03,64.33,9.61,98.84,6.03c0.1-0.01,0.19-0.02,0.28-0.03
		c2.2-0.23,4.27-0.5,6.19-0.79l709.71-130.43c0.02-0.01,0.04-0.01,0.07-0.02C1508.68,1282.36,1449.37,1190.81,1217.14,1176.05z
		 M1092.29,1226.4c74.17,9.24,99.38,34.99,51.81,61.81c-50.97,27.12-169.43,45.71-276.3,44.97c1.71,0.01,3.43,0.02,5.15,0.02
		c-84.09-9.61-102.6-35.04-41.16-61.28C890.61,1245.54,1000.32,1226.82,1092.29,1226.4z M1064.95,1223.89
		c0.66,0.04,1.3,0.09,1.95,0.13C1066.25,1223.98,1065.61,1223.93,1064.95,1223.89z M1069.2,1224.17c0.86,0.06,1.71,0.13,2.57,0.19
		C1070.92,1224.3,1070.07,1224.23,1069.2,1224.17z M1073.33,1224.48c0.99,0.08,1.97,0.16,2.95,0.24
		C1075.3,1224.64,1074.32,1224.56,1073.33,1224.48z M1077.32,1224.81c1.09,0.1,2.16,0.19,3.23,0.3
		C1079.48,1225.01,1078.41,1224.91,1077.32,1224.81z M1081.21,1225.17c1.15,0.11,2.29,0.23,3.42,0.35
		C1083.5,1225.4,1082.36,1225.28,1081.21,1225.17z M1084.99,1225.56c1.2,0.13,2.38,0.26,3.55,0.39
		C1087.36,1225.81,1086.18,1225.68,1084.99,1225.56z M1088.67,1225.96c1.22,0.14,2.42,0.29,3.61,0.43
		C1091.1,1226.25,1089.89,1226.1,1088.67,1225.96z M845.42,1332.72c-1.07-0.04-2.14-0.07-3.2-0.11
		C843.28,1332.65,844.35,1332.68,845.42,1332.72z M839.42,1332.5c-0.79-0.03-1.57-0.06-2.36-0.1
		C837.85,1332.43,838.64,1332.46,839.42,1332.5z M867.61,1333.17c-1.65-0.01-3.29-0.03-4.93-0.05
		C864.32,1333.14,865.96,1333.15,867.61,1333.17z M862.2,1333.11c-1.55-0.02-3.09-0.04-4.63-0.07
		C859.11,1333.07,860.65,1333.09,862.2,1333.11z M856.72,1333.02c-1.42-0.03-2.84-0.06-4.25-0.09
		C853.88,1332.96,855.3,1332.99,856.72,1333.02z M851.13,1332.89c-1.26-0.03-2.53-0.07-3.78-0.11
		C848.61,1332.82,849.87,1332.86,851.13,1332.89z"/>
	<g>
		
			<linearGradient id="SVGID_00000056396853650920936640000012889692606601356708_" gradientUnits="userSpaceOnUse" x1="104.3185" y1="885.6483" x2="1042.3307" y2="506.6668">
			<stop  offset="0" style="stop-color:#951531"/>
			<stop  offset="0.0161" style="stop-color:#991832"/>
			<stop  offset="0.1453" style="stop-color:#B4293F"/>
			<stop  offset="0.2888" style="stop-color:#CB3749"/>
			<stop  offset="0.4523" style="stop-color:#DD4050"/>
			<stop  offset="0.6531" style="stop-color:#EA4654"/>
			<stop  offset="1" style="stop-color:#EF4956"/>
		</linearGradient>
		<path style="fill:url(#SVGID_00000056396853650920936640000012889692606601356708_);" d="M504.87,0.18
			c-4.49-0.12-9-0.18-13.52-0.18c-4.52,0-9.03,0.06-13.52,0.18C127.73,9.57-99.35,395.54,43.19,734.2l412.81,725.74
			c16.04,28.19,89.92,28.19,105.95,0L974.77,734.2C1117.32,395.54,854.96,9.57,504.87,0.18z M442.7,765.59
			c-136.32,0-246.83-117-246.83-261.33c0-144.33,110.51-261.33,246.83-261.33s246.83,117,246.83,261.33
			C689.54,648.59,579.03,765.59,442.7,765.59z"/>
		
			<linearGradient id="SVGID_00000031199603602434274410000005592452236706003882_" gradientUnits="userSpaceOnUse" x1="730.3351" y1="1481.0898" x2="730.3351" y2="0">
			<stop  offset="0" style="stop-color:#EF4956"/>
			<stop  offset="0.2059" style="stop-color:#E04251"/>
			<stop  offset="0.5252" style="stop-color:#C53346"/>
			<stop  offset="0.9163" style="stop-color:#9E1B35"/>
			<stop  offset="1" style="stop-color:#951531"/>
		</linearGradient>
		<path style="fill:url(#SVGID_00000031199603602434274410000005592452236706003882_);" d="M540.14,0.18
			C535.65,0.06,495.87,0,491.35,0c-4.52,0-9.03,0.06-13.52,0.18c-11.85,0.32-23.56,1.08-35.12,2.25
			C772.62,35.67,979.93,407,842.21,734.2l-386.69,679.82c-7.88,13.86-7.88,31.2,0,45.06l0.49,0.86c16.04,28.19,89.92,28.19,105.95,0
			L974.77,734.2C1117.32,395.54,890.23,9.57,540.14,0.18z"/>
		
			<linearGradient id="SVGID_00000001632228636799340870000011975697250256197532_" gradientUnits="userSpaceOnUse" x1="342.5051" y1="765.5941" x2="342.5051" y2="242.936">
			<stop  offset="0" style="stop-color:#EF4956"/>
			<stop  offset="0.212" style="stop-color:#E54453"/>
			<stop  offset="0.4636" style="stop-color:#D23A4B"/>
			<stop  offset="0.7342" style="stop-color:#B62A3F"/>
			<stop  offset="1" style="stop-color:#951531"/>
		</linearGradient>
		<path style="fill:url(#SVGID_00000001632228636799340870000011975697250256197532_);" d="M442.7,765.59
			c15.88,0,31.39-1.61,46.44-4.64c-114.12-23-200.4-129.17-200.4-256.69s86.28-233.69,200.4-256.69
			c-15.04-3.03-30.56-4.64-46.44-4.64c-136.32,0-246.83,117-246.83,261.33C195.87,648.59,306.38,765.59,442.7,765.59z"/>
	</g>
</g>
</svg>
